<?xml version="1.0" encoding="UTF-8"?>
<svg id="Capa_1" data-name="Capa 1" xmlns="http://www.w3.org/2000/svg" viewBox="0 0 62.65 70">
  <defs>
    <style>
      .cls-1 {
        fill: #010101;
        stroke-width: 0px;
      }
    </style>
  </defs>
  <path class="cls-1" d="M42.99,57.13c-3.92,1.88-8.32,2.93-12.96,2.93C13.45,60.06,0,46.61,0,30.03S13.45,0,30.03,0c4.64,0,9.04,1.05,12.96,2.93-10.09,4.84-17.07,15.15-17.07,27.1s6.97,22.26,17.07,27.1Z"/>
  <path class="cls-1" d="M62.65,39.97c0,16.58-13.45,30.03-30.03,30.03-4.64,0-9.04-1.05-12.96-2.93,10.09-4.84,17.07-15.15,17.07-27.1s-6.97-22.26-17.07-27.1c3.92-1.88,8.32-2.93,12.96-2.93,16.58,0,30.03,13.45,30.03,30.03Z"/>
</svg>